<svg width="1200" height="1200" viewBox="0 0 512 512" fill="none" xmlns="http://www.w3.org/2000/svg">
  <defs>
    <filter id="softGlow" x="-20%" y="-20%" width="140%" height="140%">
      <feDropShadow dx="0" dy="12" stdDeviation="12" flood-color="#8ADFE2" flood-opacity="0.28"/>
    </filter>
  </defs>

  <g filter="url(#softGlow)" stroke="#1E9AB1" stroke-width="18" stroke-linecap="round" stroke-linejoin="round">
    <path d="M118 152C110 118 136 88 174 82C206 78 228 92 249 108C271 124 294 136 336 133C367 131 393 149 395 179C396 190 394 202 390 214"/>
    <path d="M111 171C99 218 97 257 104 306C111 355 122 401 139 434C151 457 177 453 191 426C203 403 211 377 221 340C229 311 243 287 258 286C273 285 288 309 296 339C306 376 315 405 328 428C344 457 372 458 383 435C403 394 416 338 419 279C421 241 419 206 409 174"/>
    <path d="M181 93C210 68 249 62 282 74C301 81 315 93 326 110"/>
    <path d="M163 110C123 127 112 160 111 171"/>
    <path d="M205 197C239 188 286 188 318 196C344 202 353 214 352 232C350 253 336 264 310 270C288 275 264 276 247 282C225 291 215 309 215 338"/>
  </g>
</svg>
